<svg width="24" height="24" viewBox="0 0 24 24" fill="none" xmlns="http://www.w3.org/2000/svg">
<rect width="24" height="24" rx="12" transform="matrix(-4.37114e-08 -1 -1 4.37114e-08 24 24)" fill="#919191"/>
<path d="M7.00313 9.82088C7.00317 10.0359 7.08558 10.2422 7.23223 10.3942L11.4443 14.7626C11.591 14.9146 11.7898 15 11.9972 15C12.2045 15 12.4033 14.9146 12.55 14.7626L16.7613 10.3942C16.836 10.3194 16.8955 10.2299 16.9365 10.131C16.9775 10.032 16.9991 9.92563 17 9.81796C17.0009 9.71029 16.9811 9.60351 16.9418 9.50385C16.9025 9.40419 16.8444 9.31365 16.771 9.23751C16.6976 9.16137 16.6103 9.10116 16.5142 9.06039C16.4181 9.01962 16.3151 8.9991 16.2113 9.00003C16.1075 9.00097 16.0049 9.02334 15.9095 9.06584C15.8141 9.10834 15.7278 9.17011 15.6557 9.24756L11.994 13.0418L8.33471 9.24675C8.22536 9.13338 8.08605 9.05618 7.9344 9.0249C7.78275 8.99363 7.62556 9.00969 7.4827 9.07105C7.33985 9.13241 7.21775 9.23632 7.13183 9.36964C7.04591 9.50296 7.00003 9.65971 7 9.82007" fill="white"/>
</svg>
