<svg width="64" height="64" viewBox="0 0 64 64" fill="none" xmlns="http://www.w3.org/2000/svg">
<mask id="mask0_2014_1709" style="mask-type:luminance" maskUnits="userSpaceOnUse" x="0" y="0" width="64" height="64">
<path d="M0 32C0 55.4136 8.58758 64 32 64C55.4124 64 64 55.4127 64 32C64 8.58726 55.4124 -1.52588e-05 32 -1.52588e-05C8.58758 -1.52588e-05 0 8.58726 0 32Z" fill="white"/>
</mask>
<g mask="url(#mask0_2014_1709)">
<path d="M64.0078 -0.00866699H-0.0247192V63.9913H64.0078V-0.00866699Z" fill="#2900E0"/>
<path d="M52.2947 52.746C47.7701 49.3332 42.5241 47.5272 37.1018 46.175C32.3942 45.0008 27.5858 44.2753 22.7413 44.0081C17.5804 43.5377 7.77292 44.0127 4.70193 44.5166C-1.50316 45.5348 -7.65009 46.6226 -13.4104 49.2256C-18.8568 51.6863 -23.7288 54.7747 -25.352 61.1047V66.3222C-24.957 68.4845 -24.665 70.6718 -24.1482 72.8047C-22.3851 80.1386 -18.6243 86.8405 -13.2833 92.1666C-11.678 93.7929 -9.31194 93.864 -7.76886 92.3778C-6.22053 90.8867 -6.18713 88.5163 -7.79701 86.8699C-12.7371 81.8176 -15.9231 75.8528 -17.1736 68.8937C-17.4798 67.1898 -17.559 65.4447 -17.7492 63.7198C-17.919 62.181 -17.3162 60.9516 -16.25 59.8978C-13.9467 57.6189 -11.0848 56.2791 -8.10073 55.2275C1.14719 51.9669 10.7205 51.0885 20.459 51.5159C27.3872 51.8206 34.2152 52.7574 40.7271 55.221C43.1355 56.1894 45.4516 57.3735 47.647 58.7587C49.9438 60.1456 50.6941 62.2479 50.4476 65.0287C49.6843 73.6438 46.3553 80.9849 40.2857 87.1263C39.9283 87.4719 39.644 87.8859 39.4498 88.3436C39.2556 88.8013 39.1554 89.2933 39.1552 89.7905C39.1549 90.2877 39.2547 90.7799 39.4485 91.2378C39.6423 91.6956 39.9262 92.1099 40.2833 92.4558C40.6332 92.8213 41.0533 93.1124 41.5184 93.3118C41.9835 93.5111 42.484 93.6146 42.9901 93.6159C43.4961 93.6173 43.9972 93.5165 44.4633 93.3197C44.9295 93.1228 45.3511 92.834 45.703 92.4703C51.8187 86.4134 55.7619 79.1586 57.3403 70.6922C57.7591 68.2029 58.003 65.6874 58.0702 63.164C58.2719 58.5518 55.7459 55.3481 52.2957 52.746H52.2947Z" fill="#F20089"/>
<path d="M16.2953 34.8483C30.8321 34.8656 42.7709 23.0901 42.9509 8.83657C43.1405 -6.01857 31.3431 -18.1058 16.6828 -18.2892C1.77136 -18.4748 -10.1476 -6.30157 -10.1758 7.96993C-10.2067 22.9265 1.5295 34.8322 16.2953 34.8495M16.2544 -10.684C26.6993 -10.7115 35.3253 -2.15733 35.3271 8.22943C35.321 13.2617 33.3235 18.0871 29.7709 21.6512C26.2184 25.2154 21.3996 27.2286 16.3673 27.2511C5.98706 27.282 -2.57485 18.692 -2.59248 8.22943C-2.60918 -2.03237 5.98459 -10.6558 16.2529 -10.6827L16.2544 -10.684Z" fill="#F20089"/>
</g>
</svg>
