<svg width="26" height="26" viewBox="0 0 26 26" fill="none" xmlns="http://www.w3.org/2000/svg">
<path fill-rule="evenodd" clip-rule="evenodd" d="M15.2351 2.75503C14.6651 0.414991 11.3349 0.414991 10.7649 2.75503C10.6798 3.10666 10.5129 3.43323 10.2777 3.70816C10.0426 3.98309 9.74584 4.19862 9.41166 4.33721C9.07747 4.47579 8.71528 4.53352 8.35456 4.50569C7.99385 4.47786 7.6448 4.36526 7.33582 4.17705C5.27776 2.92303 2.92268 5.27807 4.17672 7.3361C4.98675 8.66512 4.26823 10.3991 2.75618 10.7667C0.414607 11.3352 0.414607 14.6667 2.75618 15.2337C3.10791 15.3189 3.43454 15.486 3.70948 15.7213C3.98441 15.9567 4.19988 16.2536 4.33834 16.588C4.47679 16.9223 4.53432 17.2847 4.50624 17.6455C4.47815 18.0063 4.36525 18.3554 4.17672 18.6643C2.92268 20.7223 5.27776 23.0773 7.33582 21.8233C7.64474 21.6348 7.99382 21.5219 8.35463 21.4938C8.71544 21.4657 9.07779 21.5233 9.41216 21.6617C9.74653 21.8002 10.0435 22.0156 10.2788 22.2906C10.5141 22.5655 10.6812 22.8921 10.7664 23.2438C11.3349 25.5854 14.6666 25.5854 15.2336 23.2438C15.3191 22.8923 15.4863 22.5659 15.7217 22.2912C15.9571 22.0164 16.254 21.8011 16.5882 21.6627C16.9225 21.5243 17.2847 21.4667 17.6454 21.4946C18.0061 21.5225 18.3552 21.6351 18.6642 21.8233C20.7222 23.0773 23.0773 20.7223 21.8233 18.6643C21.6351 18.3553 21.5225 18.0063 21.4945 17.6455C21.4666 17.2848 21.5242 16.9226 21.6626 16.5884C21.801 16.2541 22.0164 15.9572 22.2911 15.7218C22.5659 15.4865 22.8923 15.3192 23.2438 15.2337C25.5854 14.6652 25.5854 11.3337 23.2438 10.7667C22.8921 10.6814 22.5655 10.5144 22.2905 10.279C22.0156 10.0437 21.8001 9.74677 21.6617 9.4124C21.5232 9.07804 21.4657 8.7157 21.4938 8.35489C21.5218 7.99409 21.6347 7.64501 21.8233 7.3361C23.0773 5.27807 20.7222 2.92303 18.6642 4.17705C18.3553 4.36557 18.0062 4.47848 17.6454 4.50656C17.2846 4.53464 16.9222 4.47712 16.5878 4.33866C16.2535 4.20021 15.9565 3.98474 15.7212 3.70981C15.4859 3.43488 15.3188 3.10825 15.2336 2.75653L15.2351 2.75503Z" stroke="black" stroke-width="2"/>
<path d="M15.6667 13C15.6667 14.4728 14.4728 15.6667 13 15.6667C11.5272 15.6667 10.3333 14.4728 10.3333 13C10.3333 11.5272 11.5272 10.3333 13 10.3333C14.4728 10.3333 15.6667 11.5272 15.6667 13Z" stroke="black" stroke-width="2"/>
</svg>
