<svg width="150" height="22" viewBox="0 0 150 22" fill="none" xmlns="http://www.w3.org/2000/svg">
<g clip-path="url(#clip0_2014_1901)">
<path d="M95.0366 8.21257V0L88.9753 0.0106188L80.7634 3.51907V0.0658365L69.7098 0V21.966L86.4 15.8241L95.0366 21.966V8.21257Z" fill="#F28A1A"/>
<path d="M132.423 12.4155L150 0H124.768L132.423 12.4155Z" fill="#99BE2C"/>
<path d="M142.344 9.55054L124.768 21.966H150L142.344 9.55054Z" fill="#99BE2C"/>
<path d="M99.4838 21.966L124.817 12.6257V0H99.4838V21.966Z" fill="#99BE2C"/>
<path d="M37.9437 10.9841L31.6352 0L25.3268 10.9841L31.6352 21.966L37.9437 10.9841Z" fill="#F28A1A"/>
<path d="M0 0L4.20634 7.32271H10.6077L19.0204 21.966L25.3268 10.9841L19.0204 0H0Z" fill="#F28A1A"/>
<path d="M31.6352 0H19.0204L25.3267 10.9841L31.6352 0Z" fill="#E9541A"/>
<path d="M56.8584 0.0318604H44.2415L37.9352 11.0159L44.2415 22L56.8584 0.0318604Z" fill="#F28A1A"/>
<path d="M67.4852 17.0538V0.0318604H56.8584V21.9342L67.4852 17.0538Z" fill="#F28A1A"/>
</g>
<defs>
<clipPath id="clip0_2014_1901">
<rect width="150" height="22" fill="white"/>
</clipPath>
</defs>
</svg>
